# xmcd
#
# Track frame offsets: 
#        150
#        7268
#        24905
#        43203
#        49398
#        71143
#        83804
#        86476
#        101128
#        107728
#        111289
#        131102
#        134510
#        153653
#        176770
#        196687
#        214286
#        220834
#        234691
#        249202
#        265281
#
# Disc length: 3658 seconds
#
# Revision: 0
# Processed by: cddbd v1.5.2PL0 Copyright (c) Steve Scherf et al.
# Submitted via: ExactAudioCopy v0.99pb5
#
DISCID=3c0e4815
DTITLE=Pohjolan Molli - Turhaan Arkeutunut
DYEAR=2010
DGENRE=Rap
TTITLE0=Pohjolan Molli
TTITLE1=Biitit
TTITLE2=Betoniviidakos
TTITLE3=Ihmisluonto
TTITLE4=Edveden
TTITLE5=Puolesta Annoin
TTITLE6=Mainoskatko
TTITLE7=Vastaan Otin
TTITLE8=Tositv
TTITLE9=Kuulematta Paskaa
TTITLE10=Kaikki Hyvin (feat. pyhimys)
TTITLE11=Rentouttava
TTITLE12=Mieti Hetki
TTITLE13=Neliapilas
TTITLE14=Lumme
TTITLE15=Mekaaninen
TTITLE16=Syy
TTITLE17=Seuraus
TTITLE18=Troijan Hevonen
TTITLE19=Villapaita
TTITLE20=Lopussa Soitto Molliin
EXTD=
EXTT0=
EXTT1=
EXTT2=
EXTT3=
EXTT4=
EXTT5=
EXTT6=
EXTT7=
EXTT8=
EXTT9=
EXTT10=
EXTT11=
EXTT12=
EXTT13=
EXTT14=
EXTT15=
EXTT16=
EXTT17=
EXTT18=
EXTT19=
EXTT20=
PLAYORDER=
